<svg width="16" height="20" viewBox="0 0 16 20" fill="none" xmlns="http://www.w3.org/2000/svg">
<path d="M7.5625 0C5.5575 0.00227454 3.63527 0.799766 2.21752 2.21752C0.799766 3.63527 0.00227454 5.5575 0 7.5625C0 14.0336 6.875 18.9234 7.16719 19.1297C7.28428 19.2077 7.42182 19.2493 7.5625 19.2493C7.70318 19.2493 7.84072 19.2077 7.95781 19.1297C8.25 18.9234 15.125 14.0336 15.125 7.5625C15.1227 5.5575 14.3252 3.63527 12.9075 2.21752C11.4897 0.799766 9.5675 0.00227454 7.5625 0V0ZM7.5625 4.8125C8.1064 4.8125 8.63808 4.97378 9.09032 5.27596C9.54255 5.57813 9.89503 6.00762 10.1032 6.51012C10.3113 7.01262 10.3658 7.56555 10.2597 8.099C10.1536 8.63245 9.89164 9.12245 9.50704 9.50704C9.12245 9.89164 8.63245 10.1536 8.099 10.2597C7.56555 10.3658 7.01262 10.3113 6.51012 10.1032C6.00762 9.89503 5.57813 9.54255 5.27596 9.09032C4.97378 8.63808 4.8125 8.1064 4.8125 7.5625C4.8125 6.83315 5.10223 6.13368 5.61796 5.61796C6.13368 5.10223 6.83315 4.8125 7.5625 4.8125V4.8125Z" fill="#8047F8"/>
</svg>
